<svg version="1.1" id="Layer_1" xmlns="http://www.w3.org/2000/svg" xlink="http://www.w3.org/1999/xlink" x="0px" y="0px"
	 width="100%" viewBox="0 0 448 608" enable-background="new 0 0 448 608" xml:space="preserve">
<path fill="#000000" opacity="1.000000" stroke="none" 
	d="
M211.124725,221.169098 
	C181.474579,229.906296 166.649933,251.487305 159.621460,279.420166 
	C155.295959,296.610779 154.118042,314.201294 157.127182,331.869293 
	C157.345078,333.148651 157.646896,334.500275 156.441467,336.244598 
	C148.340973,336.244598 139.890945,336.301605 131.442429,336.213501 
	C128.505630,336.182892 128.763062,333.790192 128.706161,331.814148 
	C128.085007,310.239441 132.452271,289.695953 142.677704,270.706787 
	C163.563248,231.921204 196.427399,208.917725 239.380310,201.375809 
	C259.401398,197.860397 279.123108,202.534515 297.454315,211.772873 
	C331.301208,228.830643 345.365845,258.010681 348.450348,294.206696 
	C349.539368,306.986298 348.435913,319.406494 345.558746,331.814850 
	C344.770050,335.216278 343.205200,336.538879 339.742096,336.401581 
	C334.417999,336.190521 329.061127,336.058319 323.752808,336.412354 
	C318.680511,336.750610 318.394226,334.037140 318.848724,330.238251 
	C320.542664,316.079529 320.403809,301.944489 316.729492,288.111176 
	C306.471344,249.490738 280.602631,227.475967 242.182907,219.608810 
	C232.056717,217.535278 221.625824,218.124756 211.124725,221.169098 
z"/>
<path fill="#000000" opacity="1.000000" stroke="none" 
	d="
M226.211151,403.682678 
	C232.811584,405.823334 239.251328,406.580353 245.716141,407.101654 
	C249.204834,407.382965 250.433472,408.918701 250.418686,412.527435 
	C250.371826,423.954163 250.499283,423.858185 239.607697,426.268982 
	C202.701050,434.438293 174.354141,419.763000 150.804535,392.784882 
	C145.395401,386.588257 140.619812,379.735657 137.797211,370.645691 
	C144.037064,370.645691 149.668411,371.110718 155.195862,370.550537 
	C167.341812,369.319580 176.970047,371.901672 186.022476,381.591370 
	C196.508087,392.815094 210.870895,399.267517 226.211151,403.682678 
z"/>
<path fill="#000000" opacity="1.000000" stroke="none" 
	d="
M254.021057,379.400024 
	C263.047455,379.251984 271.683411,378.311462 280.318329,379.559998 
	C289.981506,380.957184 295.566467,385.025909 297.113342,392.102692 
	C298.737122,399.531158 295.115936,406.808655 287.318848,411.778015 
	C286.764496,412.131348 286.194702,412.460449 285.107208,413.118378 
	C291.540588,414.635284 297.133087,416.678406 300.140015,422.795044 
	C305.023193,432.728210 302.583679,443.772858 293.847260,450.590912 
	C286.081299,456.651642 277.019989,459.316345 267.466919,460.215668 
	C261.711395,460.757538 255.863281,460.315308 250.229935,460.315308 
	C253.982208,437.593597 253.190948,415.023438 253.996887,392.538452 
	C254.163391,387.893280 253.073608,385.488708 248.029282,386.173920 
	C247.083374,386.302429 246.020187,386.369171 244.924728,385.287476 
	C246.861801,381.944916 250.798965,381.525787 254.021057,379.400024 
M264.272644,428.478363 
	C263.878754,437.034485 264.235535,445.680176 260.673828,454.757568 
	C265.788666,454.757568 270.379028,454.805939 274.968079,454.747101 
	C283.584595,454.636597 289.764984,448.585510 290.691254,439.429718 
	C291.785400,428.614349 287.907990,422.458374 278.494995,420.324493 
	C275.514648,419.648865 272.454407,419.325500 268.145508,418.634949 
	C272.047485,416.473755 274.988678,415.070435 277.691681,413.302887 
	C284.225800,409.029846 286.020721,402.573181 284.572906,395.407104 
	C283.234406,388.782104 277.571350,387.151642 271.764099,386.200958 
	C271.108124,386.093567 270.438873,386.023071 269.804016,385.838440 
	C266.400940,384.848846 265.350128,386.380615 265.284210,389.613129 
	C265.026794,402.239441 264.630188,414.862854 264.272644,428.478363 
z"/>
<path fill="#000000" opacity="1.000000" stroke="none" 
	d="
M314.077209,370.649292 
	C317.838409,370.650116 321.126190,370.650116 325.982605,370.650116 
	C318.615479,380.975677 310.762878,388.671082 301.360748,395.333679 
	C301.672363,390.408264 295.384705,386.514130 299.211304,381.809387 
	C303.045715,377.095093 304.402374,368.606415 314.077209,370.649292 
z"/>
<path fill="#000000" opacity="1.000000" stroke="none" 
	d="
M329.436523,361.953247 
	C326.741821,359.459045 324.376801,357.129944 322.050140,354.763153 
	C321.617523,354.323059 321.338959,353.731476 320.876892,353.042053 
	C322.063477,351.917419 323.265778,351.031525 324.131226,349.890198 
	C325.103241,348.608246 325.103241,347.062836 324.141083,345.702637 
	C323.541077,344.854431 322.595612,344.311371 321.551697,344.531830 
	C319.716797,344.919342 319.400055,346.435852 319.402283,348.000763 
	C319.408539,352.430115 318.852875,356.887238 320.163086,361.142822 
	C318.779083,362.544189 317.428711,362.538849 315.814941,361.646698 
	C315.232361,355.790497 316.648315,349.795197 315.315979,343.897614 
	C315.225800,343.498383 315.439331,342.732208 315.731537,342.590668 
	C319.026245,340.994629 322.622467,340.912140 325.787964,342.308533 
	C328.885773,343.675049 328.906769,346.733032 327.660736,349.629974 
	C326.151062,353.139862 329.806763,359.404541 333.513641,359.608398 
	C335.480499,359.716553 336.022095,358.234192 336.600220,356.881042 
	C338.100983,353.368439 339.501953,349.813293 340.979858,346.290710 
	C341.674500,344.635101 342.128845,342.730865 344.664703,342.339325 
	C348.452759,347.909943 347.792816,355.391083 352.214905,361.061066 
	C350.257507,362.569000 348.401764,363.246582 346.978394,360.617188 
	C345.740295,358.330078 346.139832,354.571228 341.811096,355.429138 
	C338.149292,356.154816 338.641968,359.541870 337.789734,362.105377 
	C335.032990,362.105377 332.406219,362.105377 329.436523,361.953247 
z"/>
<path fill="#000000" opacity="1.000000" stroke="none" 
	d="
M134.237488,361.488739 
	C128.103760,363.453979 124.577492,362.528961 122.090805,358.557068 
	C119.749413,354.817261 120.309387,349.192047 123.391563,345.489929 
	C126.336586,341.952576 132.043564,340.603729 136.096710,342.487091 
	C140.946487,344.740662 142.720749,351.129028 139.888031,356.208496 
	C138.640396,358.445740 136.887756,360.179352 134.237488,361.488739 
M137.618271,351.684906 
	C136.212708,346.305664 133.259186,343.638916 129.350357,344.479828 
	C125.132553,345.387177 124.031883,348.533508 124.264389,352.362915 
	C124.521698,356.600677 126.934128,359.308350 131.042297,359.544159 
	C135.624725,359.807129 137.160126,356.427094 137.618271,351.684906 
z"/>
<path fill="#000000" opacity="1.000000" stroke="none" 
	d="
M272.797699,347.069580 
	C277.197968,341.665649 281.679840,340.289886 286.478180,342.592834 
	C290.327759,344.440460 292.186127,348.866730 291.109253,353.623138 
	C290.038849,358.350922 284.700867,362.839661 279.873718,362.819031 
	C272.516418,362.787567 267.690826,353.875488 272.797699,347.069580 
M276.553345,346.083649 
	C275.469147,347.353546 274.596191,348.713776 274.386658,350.434906 
	C273.941895,354.088135 275.184296,356.884735 278.428497,358.740601 
	C280.646667,360.009491 282.856445,360.125885 284.889191,358.493927 
	C287.832428,356.131012 288.271942,352.871368 287.369171,349.513184 
	C286.181763,345.095917 281.919342,343.568665 276.553345,346.083649 
z"/>
<path fill="#000000" opacity="1.000000" stroke="none" 
	d="
M214.115417,358.854553 
	C210.614975,362.434235 206.783478,362.940460 202.351227,361.824341 
	C202.441971,355.326538 203.426743,349.095093 201.801666,342.852661 
	C204.833542,340.956818 207.944931,341.514069 210.958115,342.244446 
	C211.951721,342.485229 213.603226,343.976990 213.475540,344.286072 
	C211.436874,349.220978 217.519852,353.617340 214.115417,358.854553 
M208.180817,360.044464 
	C212.993362,357.113434 212.956909,355.679230 207.955078,351.161346 
	C211.142578,346.896881 211.137085,346.839172 207.349304,344.797363 
	C206.558502,346.898560 205.690231,357.903198 206.285339,359.661285 
	C206.379272,359.938721 207.115417,359.998810 208.180817,360.044464 
z"/>
<path fill="#000000" opacity="1.000000" stroke="none" 
	d="
M158.981140,351.079407 
	C160.949692,347.971710 160.513458,343.742767 164.648865,342.217346 
	C168.441055,348.084137 167.714096,355.565796 172.345062,361.167969 
	C169.077026,363.147675 167.293259,362.390839 166.366653,359.001770 
	C165.842133,357.083344 165.356567,355.116211 162.534912,355.330963 
	C159.794952,355.539490 158.619720,357.298462 158.399597,359.523834 
	C158.103424,362.517975 156.890244,362.816772 154.467270,361.577484 
	C155.952042,358.121826 157.389786,354.775604 158.981140,351.079407 
z"/>
<path fill="#000000" opacity="1.000000" stroke="none" 
	d="
M223.484772,349.584900 
	C224.994080,346.943298 224.682510,343.534576 228.347397,342.414368 
	C232.417236,347.899658 231.342804,355.544037 236.104538,360.968658 
	C233.324463,363.135376 231.449371,363.006531 230.352051,359.349670 
	C229.743408,357.321381 229.291641,355.016968 226.242538,355.352051 
	C223.402435,355.664185 222.073914,357.524139 222.044113,360.013641 
	C222.002472,363.495728 220.084457,362.018311 218.005936,361.918549 
	C219.893814,357.674896 221.615463,353.804901 223.484772,349.584900 
z"/>
<path fill="#000000" opacity="1.000000" stroke="none" 
	d="
M176.544601,359.040222 
	C178.188492,359.265839 179.467712,359.661987 180.769562,359.761139 
	C182.132980,359.864929 183.543121,359.511444 184.089844,358.090118 
	C184.695312,356.516113 183.448929,355.681549 182.355377,354.910095 
	C181.816238,354.529755 181.204666,354.253906 180.639191,353.908875 
	C177.796829,352.174713 174.368515,350.653168 176.518661,346.324219 
	C178.401962,342.532501 183.110031,341.087860 187.465775,342.792755 
	C186.992050,345.733490 184.859070,344.427948 183.271210,344.423920 
	C181.649094,344.419800 180.259918,344.908295 179.684296,346.530182 
	C179.043365,348.335968 180.411926,349.252289 181.614578,350.140991 
	C182.141418,350.530273 182.793976,350.744232 183.357544,351.089844 
	C186.004135,352.712921 189.482483,353.962830 187.292206,358.181915 
	C185.529404,361.577454 179.580124,363.870514 176.600632,362.509827 
	C174.534348,361.566193 173.922928,360.511963 176.544601,359.040222 
z"/>
<path fill="#000000" opacity="1.000000" stroke="none" 
	d="
M264.930573,344.810883 
	C262.413422,344.289734 259.949432,343.812225 259.152893,346.537964 
	C258.449036,348.946594 260.847504,349.843933 262.470886,350.866577 
	C267.505859,354.038452 268.471771,356.163818 266.131165,359.226471 
	C263.069061,363.233154 257.918579,363.907410 254.273666,360.727295 
	C255.152573,357.994812 257.033630,359.348358 258.698883,359.602234 
	C260.494690,359.876068 262.601776,360.281006 263.397675,358.072205 
	C264.108826,356.098541 262.384674,355.141205 260.960632,354.269470 
	C258.051758,352.488953 254.155899,351.271515 256.057007,346.546417 
	C257.560669,342.809204 262.082703,341.186279 266.927429,342.432556 
	C267.316956,343.881836 266.639008,344.607635 264.930573,344.810883 
z"/>
<path fill="#000000" opacity="1.000000" stroke="none" 
	d="
M305.744019,341.649292 
	C307.819763,341.757446 309.518555,341.284363 311.041412,342.244598 
	C311.011841,342.575043 311.001495,343.148193 310.954559,343.151245 
	C302.813873,343.674225 304.163513,349.686829 304.149567,354.893555 
	C304.143890,357.011475 303.593536,359.154633 304.691101,361.010406 
	C303.253571,362.676636 301.900635,362.418945 300.505157,361.746094 
	C300.352661,361.400513 300.098022,361.100922 300.113647,360.816162 
	C300.276642,357.850739 300.424530,354.882477 300.691010,351.925293 
	C301.098999,347.398010 300.871887,343.401794 294.306854,343.610992 
	C297.772461,340.518677 301.747772,342.231567 305.744019,341.649292 
z"/>
<path fill="#000000" opacity="1.000000" stroke="none" 
	d="
M149.845398,355.527832 
	C149.367004,359.880676 149.063660,363.862549 143.765717,366.905609 
	C147.423340,358.243347 146.070923,350.462433 145.834991,342.408691 
	C146.749603,341.306335 148.206024,341.558289 149.878082,341.887024 
	C149.878082,346.287537 149.878082,350.686615 149.845398,355.527832 
z"/>
<path fill="#000000" opacity="1.000000" stroke="none" 
	d="
M246.314026,359.575684 
	C248.121445,359.907623 249.710068,359.285919 251.453979,360.852570 
	C247.901810,363.604401 244.268707,362.010162 240.547760,362.157074 
	C240.668991,355.313660 241.286652,348.924194 240.159485,342.670319 
	C241.560532,341.353668 242.997086,341.576996 244.305435,341.924866 
	C244.305435,346.408203 244.270218,350.808136 244.324112,355.207001 
	C244.343582,356.795013 243.895416,358.637177 246.314026,359.575684 
z"/>
<path fill="#000000" opacity="1.000000" stroke="none" 
	d="
M270.097412,403.285034 
	C274.126129,401.903748 277.135956,398.944061 281.258179,398.703186 
	C281.877380,406.357300 277.794098,411.294403 268.559845,413.829315 
	C267.705841,410.177277 266.462006,406.691101 270.097412,403.285034 
z"/>
</svg>